<?xml version="1.0" encoding="utf-8"?>
<!-- Generator: Adobe Illustrator 16.0.0, SVG Export Plug-In . SVG Version: 6.00 Build 0)  -->
<!DOCTYPE svg PUBLIC "-//W3C//DTD SVG 1.1//EN" "http://www.w3.org/Graphics/SVG/1.1/DTD/svg11.dtd">
<svg version="1.1" id="Layer_1" xmlns="http://www.w3.org/2000/svg" xmlns:xlink="http://www.w3.org/1999/xlink" x="0px" y="0px"
	 width="960px" height="650px" viewBox="0 0 960 650" enable-background="new 0 0 960 650" xml:space="preserve">
<title></title>
<circle fill="#E6E6E6" cx="480" cy="325" r="321.75"/>
<circle fill="#E6E6E6" cx="480" cy="325" r="321.75"/>
<path fill="#B21823" d="M717.596,266.767l-75.959,95.299c-3.399,5.008-10.216,6.311-15.224,2.911
	c-3.004-2.04-4.804-5.436-4.804-9.067V169.003c0-6.054,4.907-10.96,10.96-10.96c2.907,0,5.694,1.154,7.75,3.21l75.58,75.58
	C719.619,240.552,720.551,262.415,717.596,266.767z"/>
<path fill="#B21823" d="M545.714,67.996h76.573c66.412,0,120.25,53.838,120.25,120.25v5.197c0,66.412-53.838,120.25-120.25,120.25
	h-76.573c-66.412,0-120.25-53.838-120.25-120.25v-5.197C425.464,121.834,479.302,67.996,545.714,67.996z"/>
<path fill="#ED1C24" d="M541.75,40.146h84.5c66.413,0,120.25,53.837,120.25,120.25v11.34c0,66.412-53.837,120.25-120.25,120.25
	h-84.5c-66.412,0-120.25-53.838-120.25-120.25v-11.34C421.5,93.983,475.338,40.146,541.75,40.146z"/>
<path fill="#FFFFFF" d="M506.908,195.453c-14.339-0.02-25.947-11.66-25.927-26c0.021-14.339,11.661-25.946,26-25.927
	c14.339,0.021,25.947,11.661,25.927,26c-0.01,6.874-2.744,13.463-7.604,18.322C520.412,192.707,513.802,195.44,506.908,195.453z"/>
<path fill="#FFFFFF" d="M584,195.453c-1.704,0.021-3.406-0.154-5.071-0.521c-1.672-0.329-3.306-0.83-4.875-1.494
	c-1.56-0.65-3.06-1.433-4.484-2.34c-2.857-1.904-5.31-4.356-7.214-7.214c-0.909-1.425-1.691-2.927-2.34-4.488
	c-0.664-1.569-1.166-3.202-1.498-4.875c-0.332-1.669-0.505-3.366-0.518-5.068c-0.023-14.329,11.573-25.966,25.903-25.989
	c1.734-0.003,3.466,0.168,5.166,0.51c3.344,0.679,6.523,2.004,9.359,3.901c7.293,4.741,11.657,12.88,11.571,21.578
	c-0.013,1.703-0.187,3.399-0.52,5.069c-0.331,1.672-0.832,3.305-1.495,4.875c-0.65,1.561-1.435,3.062-2.343,4.487
	c-0.959,1.419-2.047,2.746-3.25,3.964C597.487,192.685,590.887,195.413,584,195.453z"/>
<path fill="#FFFFFF" d="M661.09,195.453c-1.703-0.011-3.402-0.186-5.072-0.521c-1.667-0.348-3.299-0.848-4.875-1.494
	c-1.559-0.65-3.06-1.433-4.484-2.34c-1.405-0.976-2.731-2.063-3.964-3.25c-4.856-4.893-7.589-11.502-7.604-18.396
	c0.011-1.702,0.186-3.399,0.521-5.068c0.679-3.345,2.004-6.525,3.9-9.362c0.932-1.421,1.997-2.748,3.184-3.965
	c1.232-1.187,2.559-2.273,3.964-3.25c1.425-0.906,2.926-1.688,4.484-2.339c1.573-0.655,3.206-1.156,4.875-1.495
	c3.343-0.714,6.798-0.714,10.141,0c1.672,0.329,3.306,0.83,4.875,1.495c1.566,0.636,3.067,1.419,4.484,2.339
	c1.42,0.96,2.748,2.048,3.968,3.25c1.206,1.216,2.294,2.543,3.25,3.965c0.927,1.425,1.732,2.926,2.405,4.487
	c0.634,1.58,1.134,3.211,1.495,4.875c0.605,3.352,0.605,6.785,0,10.138c-0.361,1.663-0.861,3.294-1.495,4.875
	c-0.673,1.561-1.479,3.063-2.405,4.487c-0.956,1.421-2.044,2.748-3.25,3.964c-1.22,1.203-2.548,2.291-3.968,3.25
	c-1.417,0.921-2.918,1.704-4.484,2.339c-1.569,0.666-3.203,1.167-4.875,1.495C664.489,195.272,662.792,195.446,661.09,195.453z"/>
<path fill="#FFAB80" d="M498.238,294.395c0,49.607-40.218,131.548-89.829,131.548s-89.83-81.94-89.83-131.548
	c0-49.612,40.218-89.83,89.83-89.83C458.02,204.565,498.238,244.782,498.238,294.395L498.238,294.395z"/>
<path d="M540.668,538.761H276.944c-13.955,0.01-25.276-11.295-25.286-25.249c-0.002-3.196,0.602-6.364,1.78-9.335
	c8.908-22.084,28.596-37.804,52.102-49.182c19.612-9.507,39.075-20.961,50.454-38.028c13.691,14.489,32.484,23.081,52.4,23.955
	c20.178-0.869,39.197-9.666,52.925-24.479c11.229,17.367,30.917,28.895,50.754,38.552c23.58,11.378,43.192,27.098,52.101,49.182
	c5.162,12.947-1.149,27.628-14.097,32.79C547.084,538.159,543.89,538.769,540.668,538.761z"/>
</svg>
